#!OML:ASF E:\emotionWalksFemale\Project 1\Capture day 1\Session 1\Female1.ASF
:FULLY-SPECIFIED
:DEGREES
816
root 10.0239 15.0232 -21.7464 174.595 1.98658 174.266
lowerback -3.14038 -7.39559 -1.05919
upperback -5.99608 -9.33047 4.2718
thorax -3.57895 -4.35565 4.9328
lowerneck -2.01247 10.5486 7.98211
upperneck 10.3182 15.2215 -9.21079
head 4.73622 7.58766 -3.21572
rclavicle -5.88403e-014 2.54444e-014
rhumerus -55.9809 -20.1875 -34.1577
rradius 34.4293
rwrist 6.25715
rhand 3.91722 -53.4167
rfingers 7.12502
rthumb 29.3367 -81.122
lclavicle -5.88403e-014 2.54444e-014
lhumerus -38.5365 -4.49157 96.613
lradius 38.4499
lwrist -12.7502
lhand 3.85705 -31.5924
lfingers 7.12502
lthumb 29.2792 -3.87696
rfemur -24.1289 21.7267 14.532
rtibia 26.2222
rfoot -23.678 -34.9963
rtoes 12.0542
lfemur 21.8344 -3.05001 -36.8157
ltibia 20.5579
lfoot -7.75244 6.69637
ltoes -5.36079
817
root 10.0629 15.0449 -21.9176 174.608 1.6553 174.684
lowerback -3.29498 -7.50509 -1.25624
upperback -6.03488 -9.44926 4.53346
thorax -3.44824 -4.39688 5.28321
lowerneck -1.81915 10.5837 7.49072
upperneck 10.0611 15.2136 -8.76419
head 4.55327 7.59079 -3.03191
rclavicle 6.04305e-014 4.77083e-014
rhumerus -55.9189 -20.578 -32.8318
rradius 34.9124
rwrist 5.37397
rhand 3.30163 -53.4823
rfingers 7.12502
rthumb 28.7487 -81.289
lclavicle 6.04305e-014 4.77083e-014
lhumerus -38.5986 -3.90689 96.5383
lradius 38.0836
lwrist -13.3462
lhand 5.02528 -31.3815
lfingers 7.12502
lthumb 30.3941 -3.8663
rfemur -23.6055 22.1367 15.2714
rtibia 26.6122
rfoot -23.2257 -35.8478
rtoes 11.9961
lfemur 22.0986 -2.71627 -35.8324
ltibia 20.9096
lfoot -6.44866 5.7638
ltoes -5.19416
818
root 10.0979 15.0618 -22.0947 174.562 1.31102 174.935
lowerback -3.44034 -7.55916 -1.4452
upperback -6.13931 -9.49342 4.68728
thorax -3.41678 -4.39922 5.52875
lowerneck -1.6859 10.4135 7.51616
upperneck 10.1261 15.061 -9.07224
head 4.56312 7.51797 -3.14511
rclavicle 1.48691e-013 3.18055e-014
rhumerus -56.0711 -20.7773 -31.436
rradius 35.4584
rwrist 4.42265
rhand 3.14086 -53.3932
rfingers 7.12502
rthumb 28.5952 -81.2259
lclavicle 1.48691e-013 3.18055e-014
lhumerus -38.7499 -3.4941 96.5308
lradius 37.6176
lwrist -13.6659
lhand 6.71608 -30.9531
lfingers 7.12502
lthumb 32.0054 -3.74826
rfemur -23.0132 22.9746 15.6796
rtibia 26.8482
rfoot -23.5392 -36.4315
rtoes 15.0383
lfemur 22.3395 -2.22799 -34.9709
ltibia 21.5283
lfoot -5.11638 4.87197
ltoes -4.74244
819
root 10.1281 15.0762 -22.2689 174.358 0.911734 175.208
lowerback -3.23588 -7.64318 -1.5751
upperback -6.25601 -9.58426 4.81579
thorax -3.60167 -4.42433 5.76708
lowerneck -1.81547 10.3082 7.67004
upperneck 10.3802 14.9554 -9.20125
head 4.67414 7.46384 -3.20023
rclavicle -1.82882e-014 -2.22639e-014
rhumerus -56.1598 -21.083 -30.0502
rradius 35.9388
rwrist 3.5812
rhand 3.18836 -52.8671
rfingers 7.12502
rthumb 28.6405 -80.6921
lclavicle -1.82882e-014 -2.22639e-014
lhumerus -38.9583 -2.95632 96.3818
lradius 37.197
lwrist -14.0335
lhand 8.13836 -30.447
lfingers 7.12502
lthumb 33.3586 -3.52315
rfemur -22.1237 23.9228 16.1041
rtibia 26.7288
rfoot -23.7309 -36.733
rtoes 18.2526
lfemur 22.3785 -1.60697 -33.9921
ltibia 22.8717
lfoot -3.74834 3.90391
ltoes -3.56359
820
root 10.1555 15.0972 -22.436 174.238 0.455508 175.528
lowerback -2.79716 -7.64109 -1.50042
upperback -6.52731 -9.54702 4.85339
thorax -4.1423 -4.37698 5.85695
lowerneck -1.99015 10.2144 7.94583
upperneck 10.9012 14.8922 -9.31048
head 4.88552 7.43537 -3.25529
rclavicle 1.43125e-014 -6.04305e-014
rhumerus -56.7019 -21.4433 -28.4197
rradius 36.4766
rwrist 2.95247
rhand 3.18169 -52.4359
rfingers 7.12502
rthumb 28.6342 -80.262
lclavicle 1.43125e-014 -6.04305e-014
lhumerus -39.3029 -2.87304 96.2522
lradius 36.7778
lwrist -14.2384
lhand 8.79934 -29.8918
lfingers 7.12502
lthumb 33.9867 -3.10507
rfemur -21.3583 24.5353 16.5915
rtibia 26.6935
rfoot -23.3078 -36.7492
rtoes 18.5674
lfemur 22.1778 -0.898702 -32.8684
ltibia 24.3422
lfoot -1.93933 2.8171
ltoes -7.85534
821
root 10.1813 15.1217 -22.6025 174.24 -0.0232823 175.836
lowerback -1.91765 -7.50474 -1.0376
upperback -7.26346 -9.27926 4.67745
thorax -5.54871 -4.18756 5.63323
lowerneck -1.65614 9.86443 8.37832
upperneck 11.4614 14.5141 -9.33916
head 4.99984 7.28503 -3.36633
rclavicle 1.03368e-014 2.8625e-014
rhumerus -58.0771 -21.1339 -26.5917
rradius 37.0825
rwrist 2.16265
rhand 2.50917 -52.6096
rfingers 7.12502
rthumb 27.9914 -80.5423
lclavicle 1.03368e-014 2.8625e-014
lhumerus -40.3213 -3.27681 96.1641
lradius 36.3133
lwrist -14.5119
lhand 9.8549 -29.3736
lfingers 7.12502
lthumb 34.9887 -2.81488
rfemur -20.5954 24.2482 17.1963
rtibia 26.6073
rfoot -21.7835 -36.1456
rtoes 16.3182
lfemur 21.6329 -0.0405277 -31.6795
ltibia 26.1733
lfoot -0.0892316 1.582
ltoes -17.7581
822
root 10.2042 15.1447 -22.7744 174.127 -0.493937 176.118
lowerback -2.24068 -6.63499 -0.917944
upperback -7.09642 -9.46282 4.5609
thorax -5.22139 -4.83968 5.43763
lowerneck -1.71837 9.84235 8.11519
upperneck 10.929 14.337 -8.92415
head 4.78245 7.19129 -3.22669
rclavicle -5.64548e-014 6.36111e-014
rhumerus -58.1663 -22.1492 -25.2701
rradius 37.3206
rwrist 1.48126
rhand 0.793163 -52.9954
rfingers 7.12502
rthumb 26.3499 -81.1848
lclavicle -5.64548e-014 6.36111e-014
lhumerus -39.7612 -3.26826 95.7674
lradius 35.6528
lwrist -15.0179
lhand 11.0519 -28.9413
lfingers 7.12502
lthumb 36.1234 -2.65515
rfemur -19.5882 23.4246 17.912
rtibia 26.4545
rfoot -18.2077 -35.5042
rtoes 9.35258
lfemur 20.9599 0.631617 -30.5863
ltibia 28.3999
lfoot 1.76086 0.437647
ltoes -22.1297
823
root 10.2251 15.1687 -22.9378 173.98 -0.946902 176.554
lowerback -2.00061 -6.64606 -0.618249
upperback -7.19661 -9.48662 4.64289
thorax -5.49448 -4.86242 5.41166
lowerneck -1.80321 9.93981 7.6211
upperneck 11.0905 14.3906 -8.15528
head 4.76001 7.22412 -2.91185
rclavicle 4.6118e-014 8.90555e-014
rhumerus -58.2026 -22.5938 -23.9713
rradius 37.5056
rwrist 0.872478
rhand -0.355024 -52.522
rfingers 7.12502
rthumb 25.2503 -80.8711
lclavicle 4.6118e-014 8.90555e-014
lhumerus -39.7401 -2.72826 95.3754
lradius 35.0228
lwrist -15.6425
lhand 11.6054 -28.5297
lfingers 7.12502
lthumb 36.6474 -2.37486
rfemur -18.6148 22.7032 18.7346
rtibia 26.2816
rfoot -14.1055 -34.8432
rtoes 1.10787
lfemur 20.0747 1.03701 -29.3736
ltibia 30.911
lfoot 3.80643 -0.614007
ltoes -23.1852
824
root 10.2491 15.1884 -23.0872 173.777 -1.36808 177.159
lowerback -1.64929 -6.63078 -0.219133
upperback -7.2268 -9.4612 4.74158
thorax -5.77355 -4.86275 5.35958
lowerneck -1.91913 9.80949 7.90603
upperneck 11.2404 14.2657 -8.50424
head 4.86002 7.15931 -3.05767
rclavicle 3.26007e-014 -3.18055e-014
rhumerus -58.3527 -23.0461 -22.7446
rradius 37.7383
rwrist 0.52206
rhand -0.517137 -51.5124
rfingers 7.12502
rthumb 25.095 -79.8834
lclavicle 3.26007e-014 -3.18055e-014
lhumerus -39.5395 -2.16131 94.8199
lradius 34.3157
lwrist -16.5254
lhand 11.9289 -28.2006
lfingers 7.12502
lthumb 36.9535 -2.12414
rfemur -17.6307 22.1264 19.7419
rtibia 26.0441
rfoot -11.9961 -34.0848
rtoes -0.531836
lfemur 19.0677 1.36822 -27.9345
ltibia 33.6808
lfoot 5.86055 -1.43148
ltoes -22.6469
825
root 10.2765 15.2045 -23.2316 173.469 -1.78552 177.734
lowerback -1.13448 -6.62399 0.0805685
upperback -7.30656 -9.44337 4.82035
thorax -6.18707 -4.85811 5.37168
lowerneck -1.75514 9.69921 7.98754
upperneck 11.1872 14.1313 -8.56067
head 4.81433 7.1019 -3.10795
rclavicle 9.62118e-014 3.65764e-014
rhumerus -58.505 -22.9432 -22.0005
rradius 38.2075
rwrist -0.917134
rhand -2.42038 -51.7754
rfingers 7.12502
rthumb 23.2701 -80.3893
lclavicle 9.62118e-014 3.65764e-014
lhumerus -39.4804 -1.77219 94.1978
lradius 33.8108
lwrist -17.3233
lhand 12.2418 -27.84
lfingers 7.12502
lthumb 37.2494 -1.84043
rfemur -16.477 21.4311 20.7929
rtibia 25.7023
rfoot -11.0874 -33.5815
rtoes 0.892649
lfemur 17.9682 1.70229 -26.5187
ltibia 36.6655
lfoot 7.68073 -2.03971
ltoes -20.8791
826
root 10.3032 15.2239 -23.3747 173.116 -2.21481 178.251
lowerback -0.483747 -6.64307 0.312714
upperback -7.31485 -9.44342 4.93835
thorax -6.58473 -4.85368 5.47397
lowerneck -1.98275 9.61553 7.76383
upperneck 11.1662 13.9984 -8.48703
head 4.81361 7.02382 -3.05163
rclavicle -1.02573e-013 -1.11319e-014
rhumerus -58.4448 -23.2328 -21.0749
rradius 38.4586
rwrist -2.04407
rhand -4.38622 -52.1924
rfingers 7.12502
rthumb 21.383 -81.0325
lclavicle -1.02573e-013 -1.11319e-014
lhumerus -39.2287 -1.62764 93.6824
lradius 33.3806
lwrist -17.6574
lhand 12.9634 -27.3971
lfingers 7.12502
lthumb 37.9313 -1.57918
rfemur -15.2735 20.5018 21.8025
rtibia 25.36
rfoot -11.1191 -33.146
rtoes 4.52857
lfemur 16.7317 2.07324 -25.1858
ltibia 39.7194
lfoot 9.36241 -3.44569
ltoes -25.0901
827
root 10.3278 15.2522 -23.5238 173.249 -2.53227 178.677
lowerback -0.604639 -6.62087 0.535065
upperback -7.29373 -9.41817 5.05782
thorax -6.50989 -4.8589 5.45825
lowerneck -1.98278 9.49203 7.75642
upperneck 10.726 13.8085 -8.72689
head 4.67891 6.91911 -3.14766
rclavicle 3.10104e-014 7.31528e-014
rhumerus -58.2403 -24.0347 -20.0654
rradius 38.4293
rwrist -2.6933
rhand -6.02629 -52.1741
rfingers 7.12502
rthumb 19.8071 -81.1848
lclavicle 3.10104e-014 7.31528e-014
lhumerus -38.8349 -1.27203 93.0187
lradius 33.065
lwrist -18.2434
lhand 14.1079 -27.0065
lfingers 7.12502
lthumb 39.0112 -1.48966
rfemur -14.6857 19.5717 22.5146
rtibia 25.0764
rfoot -12.8384 -32.4153
rtoes 14.0715
lfemur 14.9566 2.33999 -24.0443
ltibia 42.7295
lfoot 11.3645 -5.11735
ltoes -27.135
828
root 10.3477 15.2719 -23.6714 173.195 -2.7251 179.05
lowerback -0.704664 -6.5643 0.853832
upperback -7.10892 -9.32022 5.04961
thorax -6.31246 -4.82782 5.23973
lowerneck -1.64979 9.53964 7.74999
upperneck 9.86519 13.7982 -8.81234
head 4.36606 6.91678 -3.21057
rclavicle -8.90555e-014 -1.74931e-014
rhumerus -58.1357 -24.8577 -19.2065
rradius 38.3941
rwrist -2.93301
rhand -6.92305 -52.0122
rfingers 7.12502
rthumb 18.9448 -81.1096
lclavicle -8.90555e-014 -1.74931e-014
lhumerus -38.4263 -0.805631 92.1844
lradius 32.9896
lwrist -18.9268
lhand 14.7748 -26.4026
lfingers 7.12502
lthumb 39.6397 -1.06889
rfemur -13.8953 18.6829 23.223
rtibia 24.8278
rfoot -10.5561 -31.5433
rtoes 8.92148
lfemur 13.3864 2.51416 -23.0986
ltibia 45.6618
lfoot 13.7301 -5.57967
ltoes -21.676
829
root 10.3636 15.2833 -23.8156 172.961 -2.88005 179.419
lowerback -0.363007 -6.50526 1.14896
upperback -7.04321 -9.21267 5.07347
thorax -6.48699 -4.78142 5.14989
lowerneck -1.45468 9.52778 7.63327
upperneck 9.39971 13.7216 -8.67113
head 4.16835 6.88277 -3.17856
rclavicle 6.44062e-014 -9.22361e-014
rhumerus -57.9921 -24.8895 -18.7085
rradius 38.5875
rwrist -3.73394
rhand -7.9951 -52.2828
rfingers 7.12502
rthumb 17.9135 -81.4778
lclavicle 6.44062e-014 -9.22361e-014
lhumerus -38.257 -0.436068 91.5254
lradius 32.8887
lwrist -19.2736
lhand 14.735 -25.7725
lfingers 7.12502
lthumb 39.6021 -0.427638
rfemur -12.8986 17.7752 23.9774
rtibia 24.6298
rfoot -9.73539 -30.4954
rtoes 9.31765
lfemur 11.988 2.65206 -22.2553
ltibia 48.4963
lfoot 15.7488 -5.20522
ltoes -14.9266
